<svg width="159" height="43" viewBox="0 0 159 43" fill="none" xmlns="http://www.w3.org/2000/svg">
<path d="M6.35742 12.6382V21.3267H10.7017C11.297 21.3267 11.8571 21.2157 12.3818 20.9937C12.9066 20.7616 13.3657 20.4487 13.7593 20.0552C14.1528 19.6616 14.4606 19.2025 14.6826 18.6777C14.9147 18.1429 15.0308 17.5778 15.0308 16.9824C15.0308 16.387 14.9147 15.827 14.6826 15.3022C14.4606 14.7674 14.1528 14.3032 13.7593 13.9097C13.3657 13.5161 12.9066 13.2083 12.3818 12.9863C11.8571 12.7542 11.297 12.6382 10.7017 12.6382H6.35742ZM6.35742 30H2.01318V8.29395H10.7017C11.4989 8.29395 12.2658 8.3999 13.0024 8.61182C13.7391 8.81364 14.4253 9.10628 15.061 9.48975C15.7069 9.86312 16.2922 10.3172 16.8169 10.8521C17.3517 11.3768 17.8058 11.9621 18.1792 12.6079C18.5627 13.2537 18.8553 13.945 19.0571 14.6816C19.269 15.4183 19.375 16.1852 19.375 16.9824C19.375 18.1732 19.1479 19.2983 18.6938 20.3579C18.2397 21.4074 17.6191 22.3257 16.832 23.1128C16.0449 23.8999 15.1216 24.5205 14.062 24.9746C13.0125 25.4287 11.8924 25.6558 10.7017 25.6558H6.35742V30ZM61.2583 30H46.061V8.29395H50.4053V25.6558H61.2583V30ZM100.114 30H95.4673L87.0967 15.7109V30H82.7524V8.29395H87.3994L95.77 22.5981V8.29395H100.114V30ZM149.823 30H145.494V14.5C145.494 14.1973 145.434 13.9147 145.312 13.6523C145.201 13.39 145.045 13.1629 144.843 12.9712C144.652 12.7694 144.424 12.613 144.162 12.502C143.9 12.391 143.617 12.3354 143.314 12.3354C143.012 12.3354 142.729 12.391 142.467 12.502C142.204 12.613 141.972 12.7694 141.771 12.9712C141.579 13.1629 141.427 13.39 141.316 13.6523C141.205 13.9147 141.15 14.1973 141.15 14.5V30H136.806V14.5C136.806 14.1973 136.75 13.9147 136.639 13.6523C136.528 13.39 136.372 13.1629 136.17 12.9712C135.978 12.7694 135.751 12.613 135.489 12.502C135.226 12.391 134.944 12.3354 134.641 12.3354C134.338 12.3354 134.056 12.391 133.793 12.502C133.531 12.613 133.299 12.7694 133.097 12.9712C132.905 13.1629 132.754 13.39 132.643 13.6523C132.532 13.9147 132.477 14.1973 132.477 14.5V30H128.132V14.5C128.132 13.6019 128.299 12.7593 128.632 11.9722C128.975 11.175 129.439 10.4837 130.024 9.89844C130.62 9.30306 131.311 8.83887 132.098 8.50586C132.895 8.16276 133.743 7.99121 134.641 7.99121C135.448 7.99121 136.225 8.13753 136.972 8.43018C137.719 8.71273 138.39 9.12646 138.985 9.67139C139.581 9.12646 140.247 8.71273 140.983 8.43018C141.73 8.13753 142.507 7.99121 143.314 7.99121C144.213 7.99121 145.055 8.16276 145.842 8.50586C146.639 8.83887 147.331 9.30306 147.916 9.89844C148.511 10.4837 148.976 11.175 149.309 11.9722C149.652 12.7593 149.823 13.6019 149.823 14.5V30Z" fill="black"/>
<path d="M43.2002 19.2378C43.2002 20.2671 43.064 21.2611 42.7915 22.2197C42.5291 23.1683 42.1558 24.0614 41.6714 24.8989C41.187 25.7264 40.6017 26.4832 39.9155 27.1694C39.2293 27.8556 38.4725 28.446 37.645 28.9404C36.8175 29.4248 35.9245 29.7982 34.9658 30.0605C34.0072 30.333 33.0132 30.4692 31.9839 30.4692C30.9546 30.4692 29.9606 30.333 29.002 30.0605C28.0534 29.7982 27.1603 29.4248 26.3228 28.9404C25.4953 28.446 24.7384 27.8556 24.0522 27.1694C23.366 26.4832 22.7757 25.7264 22.2812 24.8989C21.7969 24.0614 21.4185 23.1683 21.146 22.2197C20.8836 21.2611 20.7524 20.2671 20.7524 19.2378C20.7524 18.2085 20.8836 17.2145 21.146 16.2559C21.4185 15.2972 21.7969 14.4041 22.2812 13.5767C22.7757 12.7492 23.366 11.9924 24.0522 11.3062C24.7384 10.62 25.4953 10.0347 26.3228 9.55029C27.1603 9.06592 28.0534 8.69255 29.002 8.43018C29.9606 8.15771 30.9546 8.02148 31.9839 8.02148C33.0132 8.02148 34.0072 8.15771 34.9658 8.43018C35.9245 8.69255 36.8175 9.06592 37.645 9.55029C38.4725 10.0347 39.2293 10.62 39.9155 11.3062C40.6017 11.9924 41.187 12.7492 41.6714 13.5767C42.1558 14.4041 42.5291 15.2972 42.7915 16.2559C43.064 17.2145 43.2002 18.2085 43.2002 19.2378ZM38.8862 19.2378C38.8862 18.2892 38.7046 17.3962 38.3413 16.5586C37.978 15.7109 37.4836 14.9793 36.8579 14.3638C36.2424 13.7381 35.5107 13.2437 34.6631 12.8804C33.8255 12.5171 32.9325 12.3354 31.9839 12.3354C31.0252 12.3354 30.1271 12.5171 29.2896 12.8804C28.452 13.2437 27.7204 13.7381 27.0947 14.3638C26.4691 14.9793 25.9746 15.7109 25.6113 16.5586C25.248 17.3962 25.0664 18.2892 25.0664 19.2378C25.0664 20.1864 25.248 21.0794 25.6113 21.917C25.9746 22.7445 26.4691 23.471 27.0947 24.0967C27.7204 24.7223 28.452 25.2168 29.2896 25.5801C30.1271 25.9434 31.0252 26.125 31.9839 26.125C32.9325 26.125 33.8255 25.9434 34.6631 25.5801C35.5107 25.2168 36.2424 24.7223 36.8579 24.0967C37.4836 23.471 37.978 22.7445 38.3413 21.917C38.7046 21.0794 38.8862 20.1864 38.8862 19.2378ZM73.292 30H68.9629V23.2036C68.0042 22.9614 67.1213 22.5729 66.314 22.0381C65.5168 21.5033 64.8306 20.8675 64.2554 20.1309C63.6802 19.3841 63.2311 18.5617 62.9082 17.6636C62.5954 16.7554 62.439 15.8018 62.439 14.8027V8.29395H66.7832V14.8027C66.7832 15.3981 66.8942 15.9632 67.1162 16.498C67.3483 17.0228 67.6611 17.4819 68.0547 17.8755C68.4482 18.269 68.9074 18.5819 69.4321 18.814C69.967 19.036 70.5321 19.147 71.1274 19.147C71.7228 19.147 72.2829 19.036 72.8076 18.814C73.3424 18.5819 73.8066 18.269 74.2002 17.8755C74.5938 17.4819 74.9015 17.0228 75.1235 16.498C75.3556 15.9632 75.4717 15.3981 75.4717 14.8027V8.29395H79.8008V14.8027C79.8008 15.8018 79.6393 16.7554 79.3164 17.6636C79.0036 18.5617 78.5596 19.3841 77.9844 20.1309C77.4092 20.8675 76.723 21.5033 75.9258 22.0381C75.1286 22.5729 74.2507 22.9614 73.292 23.2036V30ZM125.423 19.2378C125.423 20.2671 125.287 21.2611 125.014 22.2197C124.752 23.1683 124.378 24.0614 123.894 24.8989C123.41 25.7264 122.824 26.4832 122.138 27.1694C121.452 27.8556 120.695 28.446 119.868 28.9404C119.04 29.4248 118.147 29.7982 117.188 30.0605C116.23 30.333 115.236 30.4692 114.207 30.4692C113.177 30.4692 112.183 30.333 111.225 30.0605C110.276 29.7982 109.383 29.4248 108.545 28.9404C107.718 28.446 106.961 27.8556 106.275 27.1694C105.589 26.4832 104.998 25.7264 104.504 24.8989C104.02 24.0614 103.641 23.1683 103.369 22.2197C103.106 21.2611 102.975 20.2671 102.975 19.2378C102.975 18.2085 103.106 17.2145 103.369 16.2559C103.641 15.2972 104.02 14.4041 104.504 13.5767C104.998 12.7492 105.589 11.9924 106.275 11.3062C106.961 10.62 107.718 10.0347 108.545 9.55029C109.383 9.06592 110.276 8.69255 111.225 8.43018C112.183 8.15771 113.177 8.02148 114.207 8.02148C115.236 8.02148 116.23 8.15771 117.188 8.43018C118.147 8.69255 119.04 9.06592 119.868 9.55029C120.695 10.0347 121.452 10.62 122.138 11.3062C122.824 11.9924 123.41 12.7492 123.894 13.5767C124.378 14.4041 124.752 15.2972 125.014 16.2559C125.287 17.2145 125.423 18.2085 125.423 19.2378ZM121.109 19.2378C121.109 18.2892 120.927 17.3962 120.564 16.5586C120.201 15.7109 119.706 14.9793 119.081 14.3638C118.465 13.7381 117.733 13.2437 116.886 12.8804C116.048 12.5171 115.155 12.3354 114.207 12.3354C113.248 12.3354 112.35 12.5171 111.512 12.8804C110.675 13.2437 109.943 13.7381 109.317 14.3638C108.692 14.9793 108.197 15.7109 107.834 16.5586C107.471 17.3962 107.289 18.2892 107.289 19.2378C107.289 20.1864 107.471 21.0794 107.834 21.917C108.197 22.7445 108.692 23.471 109.317 24.0967C109.943 24.7223 110.675 25.2168 111.512 25.5801C112.35 25.9434 113.248 26.125 114.207 26.125C115.155 26.125 116.048 25.9434 116.886 25.5801C117.733 25.2168 118.465 24.7223 119.081 24.0967C119.706 23.471 120.201 22.7445 120.564 21.917C120.927 21.0794 121.109 20.1864 121.109 19.2378Z" fill="#7B61FF"/>
<circle cx="32" cy="19" r="10" fill="#7B61FF"/>
<circle cx="115" cy="19" r="10" fill="#7B61FF"/>
</svg>
